<svg xmlns="http://www.w3.org/2000/svg" xmlns:xlink="http://www.w3.org/1999/xlink" xmlns:lucid="lucid" width="124" height="126.11"><g transform="translate(302 2.0013646665707907)" lucid:page-tab-id="0_0"><path d="M-180 108c0 6.63-26.86 12-60 12s-60-5.37-60-12V12c0-6.63 26.86-12 60-12s60 5.37 60 12z" stroke="#3a414a" stroke-width="4" fill="#fff"/><path d="M-180 12c0 6.63-26.86 12-60 12s-60-5.37-60-12" stroke="#3a414a" stroke-width="4" fill="none"/><path d="M-276.6 29a6 6 0 0 1 6-6h61.2a6 6 0 0 1 6 6v89.1a6 6 0 0 1-6 6h-61.2a6 6 0 0 1-6-6z" stroke="#000" stroke-opacity="0" fill="#fff" fill-opacity="0"/><use xlink:href="#a" transform="matrix(1,0,0,1,-271.591232804281,28) translate(0.3388888888889454 71.2083333333332)"/><defs><path fill="#1071e5" d="M535-580h108v450C643-58 585 0 513 0H183C111 0 53-58 53-130v-450h108v450c0 12 10 22 22 22h330c12 0 22-10 22-22v-450" id="b"/><use transform="matrix(0.09111111111111095,0,0,0.09111111111111095,0,0)" xlink:href="#b" id="a"/></defs></g></svg>